<mxfile host="app.diagrams.net" modified="2023-05-01T06:57:02.970Z" agent="Mozilla/5.0 (Windows NT 10.0; Win64; x64) AppleWebKit/537.36 (KHTML, like Gecko) Chrome/112.0.0.0 Safari/537.36" etag="gFGheCqkFj7iRsF_lnzR" version="21.2.3" type="google">
  <diagram id="C5RBs43oDa-KdzZeNtuy" name="Page-1">
    <mxGraphModel grid="1" page="1" gridSize="10" guides="1" tooltips="1" connect="1" arrows="1" fold="1" pageScale="1" pageWidth="827" pageHeight="1169" math="0" shadow="0">
      <root>
        <mxCell id="WIyWlLk6GJQsqaUBKTNV-0" />
        <mxCell id="WIyWlLk6GJQsqaUBKTNV-1" parent="WIyWlLk6GJQsqaUBKTNV-0" />
        <mxCell id="XQxR_669WU01Xv_efTgD-4" style="edgeStyle=orthogonalEdgeStyle;rounded=0;orthogonalLoop=1;jettySize=auto;html=1;exitX=0.5;exitY=1;exitDx=0;exitDy=0;exitPerimeter=0;entryX=0.5;entryY=0;entryDx=0;entryDy=0;" edge="1" parent="WIyWlLk6GJQsqaUBKTNV-1" source="XQxR_669WU01Xv_efTgD-0" target="XQxR_669WU01Xv_efTgD-3">
          <mxGeometry relative="1" as="geometry" />
        </mxCell>
        <mxCell id="XQxR_669WU01Xv_efTgD-0" value="구동 시작" style="strokeWidth=2;html=1;shape=mxgraph.flowchart.start_1;whiteSpace=wrap;" vertex="1" parent="WIyWlLk6GJQsqaUBKTNV-1">
          <mxGeometry x="245" y="50" width="100" height="60" as="geometry" />
        </mxCell>
        <mxCell id="XQxR_669WU01Xv_efTgD-15" style="edgeStyle=orthogonalEdgeStyle;rounded=0;orthogonalLoop=1;jettySize=auto;html=1;exitX=0.5;exitY=1;exitDx=0;exitDy=0;entryX=0.5;entryY=0;entryDx=0;entryDy=0;entryPerimeter=0;" edge="1" parent="WIyWlLk6GJQsqaUBKTNV-1" source="XQxR_669WU01Xv_efTgD-3">
          <mxGeometry relative="1" as="geometry">
            <mxPoint x="295" y="250" as="targetPoint" />
          </mxGeometry>
        </mxCell>
        <mxCell id="XQxR_669WU01Xv_efTgD-3" value="5번 6번 9번 10번&lt;br&gt;&amp;nbsp;각각에 pinMode 활성화" style="shape=parallelogram;html=1;strokeWidth=2;perimeter=parallelogramPerimeter;whiteSpace=wrap;rounded=1;arcSize=12;size=0.23;" vertex="1" parent="WIyWlLk6GJQsqaUBKTNV-1">
          <mxGeometry x="197" y="140" width="196" height="60" as="geometry" />
        </mxCell>
        <mxCell id="XQxR_669WU01Xv_efTgD-5" value="디지털 값을 받는 모터의&lt;br&gt;제어부분, LOW와 HIGH로&lt;br&gt;HIGH일 경우에만 구동" style="shape=parallelogram;html=1;strokeWidth=2;perimeter=parallelogramPerimeter;whiteSpace=wrap;rounded=1;arcSize=12;size=0.23;" vertex="1" parent="WIyWlLk6GJQsqaUBKTNV-1">
          <mxGeometry x="481" y="240" width="200" height="80" as="geometry" />
        </mxCell>
        <mxCell id="XQxR_669WU01Xv_efTgD-10" style="edgeStyle=orthogonalEdgeStyle;rounded=0;orthogonalLoop=1;jettySize=auto;html=1;exitX=0.5;exitY=1;exitDx=0;exitDy=0;exitPerimeter=0;entryX=0.5;entryY=0;entryDx=0;entryDy=0;" edge="1" parent="WIyWlLk6GJQsqaUBKTNV-1" source="XQxR_669WU01Xv_efTgD-7">
          <mxGeometry relative="1" as="geometry">
            <mxPoint x="581" y="240" as="targetPoint" />
          </mxGeometry>
        </mxCell>
        <mxCell id="XQxR_669WU01Xv_efTgD-7" value="0.015초의 딜레이" style="strokeWidth=2;html=1;shape=mxgraph.flowchart.delay;whiteSpace=wrap;" vertex="1" parent="WIyWlLk6GJQsqaUBKTNV-1">
          <mxGeometry x="531" y="140" width="100" height="60" as="geometry" />
        </mxCell>
        <mxCell id="XQxR_669WU01Xv_efTgD-16" style="edgeStyle=orthogonalEdgeStyle;rounded=0;orthogonalLoop=1;jettySize=auto;html=1;exitX=0.5;exitY=1;exitDx=0;exitDy=0;exitPerimeter=0;entryX=0.5;entryY=0;entryDx=0;entryDy=0;entryPerimeter=0;" edge="1" parent="WIyWlLk6GJQsqaUBKTNV-1" target="XQxR_669WU01Xv_efTgD-12">
          <mxGeometry relative="1" as="geometry">
            <mxPoint x="295" y="310" as="sourcePoint" />
          </mxGeometry>
        </mxCell>
        <mxCell id="XQxR_669WU01Xv_efTgD-14" style="edgeStyle=orthogonalEdgeStyle;rounded=0;orthogonalLoop=1;jettySize=auto;html=1;exitX=1;exitY=0.5;exitDx=0;exitDy=0;exitPerimeter=0;entryX=0.5;entryY=0;entryDx=0;entryDy=0;entryPerimeter=0;" edge="1" parent="WIyWlLk6GJQsqaUBKTNV-1" source="XQxR_669WU01Xv_efTgD-12" target="XQxR_669WU01Xv_efTgD-7">
          <mxGeometry relative="1" as="geometry" />
        </mxCell>
        <mxCell id="XQxR_669WU01Xv_efTgD-19" style="edgeStyle=orthogonalEdgeStyle;rounded=0;orthogonalLoop=1;jettySize=auto;html=1;exitX=0.5;exitY=1;exitDx=0;exitDy=0;exitPerimeter=0;entryX=0.5;entryY=0;entryDx=0;entryDy=0;entryPerimeter=0;" edge="1" parent="WIyWlLk6GJQsqaUBKTNV-1" source="XQxR_669WU01Xv_efTgD-12" target="XQxR_669WU01Xv_efTgD-17">
          <mxGeometry relative="1" as="geometry" />
        </mxCell>
        <mxCell id="XQxR_669WU01Xv_efTgD-12" value="&#39;F&#39;의 값이 들어왔는가?&lt;br&gt;(전진)" style="strokeWidth=2;html=1;shape=mxgraph.flowchart.decision;whiteSpace=wrap;" vertex="1" parent="WIyWlLk6GJQsqaUBKTNV-1">
          <mxGeometry x="200" y="360" width="190" height="70" as="geometry" />
        </mxCell>
        <mxCell id="XQxR_669WU01Xv_efTgD-22" style="edgeStyle=orthogonalEdgeStyle;rounded=0;orthogonalLoop=1;jettySize=auto;html=1;exitX=0.5;exitY=1;exitDx=0;exitDy=0;exitPerimeter=0;entryX=0.5;entryY=0;entryDx=0;entryDy=0;entryPerimeter=0;" edge="1" parent="WIyWlLk6GJQsqaUBKTNV-1" source="XQxR_669WU01Xv_efTgD-17" target="XQxR_669WU01Xv_efTgD-20">
          <mxGeometry relative="1" as="geometry" />
        </mxCell>
        <mxCell id="XQxR_669WU01Xv_efTgD-25" style="edgeStyle=orthogonalEdgeStyle;rounded=0;orthogonalLoop=1;jettySize=auto;html=1;exitX=1;exitY=0.5;exitDx=0;exitDy=0;exitPerimeter=0;" edge="1" parent="WIyWlLk6GJQsqaUBKTNV-1" source="XQxR_669WU01Xv_efTgD-17">
          <mxGeometry relative="1" as="geometry">
            <mxPoint x="461" y="390" as="targetPoint" />
          </mxGeometry>
        </mxCell>
        <mxCell id="XQxR_669WU01Xv_efTgD-17" value="&#39;B&#39;의 값이 들어왔는가?&lt;br&gt;(후진)" style="strokeWidth=2;html=1;shape=mxgraph.flowchart.decision;whiteSpace=wrap;" vertex="1" parent="WIyWlLk6GJQsqaUBKTNV-1">
          <mxGeometry x="200" y="450" width="190" height="70" as="geometry" />
        </mxCell>
        <mxCell id="XQxR_669WU01Xv_efTgD-18" value="Serial의 값을 받았을 경우" style="strokeWidth=2;html=1;shape=mxgraph.flowchart.loop_limit;whiteSpace=wrap;" vertex="1" parent="WIyWlLk6GJQsqaUBKTNV-1">
          <mxGeometry x="245" y="250" width="100" height="60" as="geometry" />
        </mxCell>
        <mxCell id="XQxR_669WU01Xv_efTgD-23" style="edgeStyle=orthogonalEdgeStyle;rounded=0;orthogonalLoop=1;jettySize=auto;html=1;exitX=0.5;exitY=1;exitDx=0;exitDy=0;exitPerimeter=0;entryX=0.5;entryY=0;entryDx=0;entryDy=0;entryPerimeter=0;" edge="1" parent="WIyWlLk6GJQsqaUBKTNV-1" source="XQxR_669WU01Xv_efTgD-20" target="XQxR_669WU01Xv_efTgD-21">
          <mxGeometry relative="1" as="geometry" />
        </mxCell>
        <mxCell id="XQxR_669WU01Xv_efTgD-26" style="edgeStyle=orthogonalEdgeStyle;rounded=0;orthogonalLoop=1;jettySize=auto;html=1;exitX=1;exitY=0.5;exitDx=0;exitDy=0;exitPerimeter=0;" edge="1" parent="WIyWlLk6GJQsqaUBKTNV-1" source="XQxR_669WU01Xv_efTgD-20">
          <mxGeometry relative="1" as="geometry">
            <mxPoint x="461" y="480" as="targetPoint" />
          </mxGeometry>
        </mxCell>
        <mxCell id="XQxR_669WU01Xv_efTgD-20" value="&#39;L&#39;의 값이 들어왔는가?&lt;br&gt;(왼쪽)" style="strokeWidth=2;html=1;shape=mxgraph.flowchart.decision;whiteSpace=wrap;" vertex="1" parent="WIyWlLk6GJQsqaUBKTNV-1">
          <mxGeometry x="200" y="540" width="190" height="70" as="geometry" />
        </mxCell>
        <mxCell id="XQxR_669WU01Xv_efTgD-27" style="edgeStyle=orthogonalEdgeStyle;rounded=0;orthogonalLoop=1;jettySize=auto;html=1;exitX=1;exitY=0.5;exitDx=0;exitDy=0;exitPerimeter=0;" edge="1" parent="WIyWlLk6GJQsqaUBKTNV-1" source="XQxR_669WU01Xv_efTgD-21">
          <mxGeometry relative="1" as="geometry">
            <mxPoint x="461" y="570" as="targetPoint" />
          </mxGeometry>
        </mxCell>
        <mxCell id="XQxR_669WU01Xv_efTgD-31" style="edgeStyle=orthogonalEdgeStyle;rounded=0;orthogonalLoop=1;jettySize=auto;html=1;exitX=0.5;exitY=1;exitDx=0;exitDy=0;exitPerimeter=0;entryX=0.5;entryY=0;entryDx=0;entryDy=0;" edge="1" parent="WIyWlLk6GJQsqaUBKTNV-1" source="XQxR_669WU01Xv_efTgD-21" target="XQxR_669WU01Xv_efTgD-30">
          <mxGeometry relative="1" as="geometry" />
        </mxCell>
        <mxCell id="XQxR_669WU01Xv_efTgD-21" value="&#39;R&#39;의 값이 들어왔는가?&lt;br&gt;(오른쪽)" style="strokeWidth=2;html=1;shape=mxgraph.flowchart.decision;whiteSpace=wrap;" vertex="1" parent="WIyWlLk6GJQsqaUBKTNV-1">
          <mxGeometry x="200" y="630" width="190" height="70" as="geometry" />
        </mxCell>
        <mxCell id="XQxR_669WU01Xv_efTgD-30" value="stop" style="shape=parallelogram;html=1;strokeWidth=2;perimeter=parallelogramPerimeter;whiteSpace=wrap;rounded=1;arcSize=12;size=0.23;" vertex="1" parent="WIyWlLk6GJQsqaUBKTNV-1">
          <mxGeometry x="245" y="720" width="100" height="40" as="geometry" />
        </mxCell>
        <mxCell id="XQxR_669WU01Xv_efTgD-32" value="No" style="text;html=1;strokeColor=none;fillColor=none;align=center;verticalAlign=middle;whiteSpace=wrap;rounded=0;" vertex="1" parent="WIyWlLk6GJQsqaUBKTNV-1">
          <mxGeometry x="211" y="420" width="60" height="30" as="geometry" />
        </mxCell>
        <mxCell id="XQxR_669WU01Xv_efTgD-33" value="No" style="text;html=1;strokeColor=none;fillColor=none;align=center;verticalAlign=middle;whiteSpace=wrap;rounded=0;" vertex="1" parent="WIyWlLk6GJQsqaUBKTNV-1">
          <mxGeometry x="211" y="510" width="60" height="30" as="geometry" />
        </mxCell>
        <mxCell id="XQxR_669WU01Xv_efTgD-34" value="No" style="text;html=1;strokeColor=none;fillColor=none;align=center;verticalAlign=middle;whiteSpace=wrap;rounded=0;" vertex="1" parent="WIyWlLk6GJQsqaUBKTNV-1">
          <mxGeometry x="211" y="600" width="60" height="30" as="geometry" />
        </mxCell>
        <mxCell id="XQxR_669WU01Xv_efTgD-35" value="No" style="text;html=1;strokeColor=none;fillColor=none;align=center;verticalAlign=middle;whiteSpace=wrap;rounded=0;" vertex="1" parent="WIyWlLk6GJQsqaUBKTNV-1">
          <mxGeometry x="235" y="690" width="60" height="30" as="geometry" />
        </mxCell>
        <mxCell id="XQxR_669WU01Xv_efTgD-36" value="Yes" style="text;html=1;strokeColor=none;fillColor=none;align=center;verticalAlign=middle;whiteSpace=wrap;rounded=0;" vertex="1" parent="WIyWlLk6GJQsqaUBKTNV-1">
          <mxGeometry x="390" y="630" width="60" height="30" as="geometry" />
        </mxCell>
        <mxCell id="XQxR_669WU01Xv_efTgD-37" value="Yes" style="text;html=1;strokeColor=none;fillColor=none;align=center;verticalAlign=middle;whiteSpace=wrap;rounded=0;" vertex="1" parent="WIyWlLk6GJQsqaUBKTNV-1">
          <mxGeometry x="393" y="540" width="60" height="30" as="geometry" />
        </mxCell>
        <mxCell id="XQxR_669WU01Xv_efTgD-38" value="Yes" style="text;html=1;strokeColor=none;fillColor=none;align=center;verticalAlign=middle;whiteSpace=wrap;rounded=0;" vertex="1" parent="WIyWlLk6GJQsqaUBKTNV-1">
          <mxGeometry x="390" y="450" width="60" height="30" as="geometry" />
        </mxCell>
        <mxCell id="XQxR_669WU01Xv_efTgD-39" value="Yes" style="text;html=1;strokeColor=none;fillColor=none;align=center;verticalAlign=middle;whiteSpace=wrap;rounded=0;" vertex="1" parent="WIyWlLk6GJQsqaUBKTNV-1">
          <mxGeometry x="390" y="360" width="60" height="30" as="geometry" />
        </mxCell>
      </root>
    </mxGraphModel>
  </diagram>
</mxfile>
